<svg viewBox="-65 1 511 511.99999">
    <path d="m90.265625 20h.269531c5.519532 0 10-4.476562 10-10s-4.480468-10-10-10h-.269531c-5.523437 0-10 4.476562-10 10s4.476563 10 10 10zm0 0"/>
    <path d="m350.5 0h-220c-5.523438 0-10 4.476562-10 10s4.476562 10 10 10h220c5.511719 0 10 4.484375 10 10v452c0 5.515625-4.488281 10-10 10h-320c-5.515625 0-10-4.484375-10-10v-452c0-5.515625 4.484375-10 10-10h31.035156c5.523438 0 10-4.476562 10-10s-4.476562-10-10-10h-31.035156c-16.542969 0-30 13.457031-30 30v452c0 16.542969 13.457031 30 30 30h320c16.539062 0 30-13.457031 30-30v-452c0-16.542969-13.460938-30-30-30zm0 0"/>
    <path d="m128.46875 185.753906v52c0 16.191406 6.246094 30.945313 16.445312 42h-6.445312c-5.519531 0-10 4.476563-10 10 0 5.523438 4.480469 10 10 10h104c5.523438 0 10-4.476562 10-10 0-5.523437-4.476562-10-10-10h-6.441406c8.050781-8.730468 13.632812-19.765625 15.625-32h6.816406c19.851562 0 36-16.148437 36-36 0-19.851562-16.148438-36-36-36h-120c-5.519531 0-10 4.476563-10 10zm146 26c0 8.824219-7.175781 16-16 16h-6v-32h6c8.824219 0 16 7.179688 16 16zm-126-16h84v42c0 23.160156-18.839844 42-42 42-23.15625 0-42-18.839844-42-42zm0 0"/>
    <path d="m194.292969 79.492188c-5.113281-2.09375-10.953125.351562-13.046875 5.460937-4.296875 10.476563-2.066406 18.953125-.441406 25.144531 1.425781 5.417969 2.039062 8.199219.441406 12.09375-2.09375 5.109375.347656 10.953125 5.457031 13.046875 1.242187.507813 2.527344.75 3.792969.75 3.9375 0 7.667968-2.339843 9.253906-6.207031 4.210938-10.269531 2.007812-18.648438.398438-24.769531-1.457032-5.53125-2.082032-8.375-.398438-12.472657 2.097656-5.113281-.347656-10.953124-5.457031-13.046874zm0 0"/>
    <path d="m154.292969 99.492188c-5.113281-2.09375-10.953125.347656-13.046875 5.460937-4.296875 10.476563-2.066406 18.953125-.441406 25.144531 1.425781 5.417969 2.039062 8.199219.441406 12.097656-2.09375 5.109376.347656 10.949219 5.457031 13.042969 1.242187.511719 2.527344.75 3.789063.75 3.9375 0 7.671874-2.339843 9.257812-6.207031 4.207031-10.265625 2.003906-18.648438.394531-24.769531-1.453125-5.53125-2.078125-8.375-.394531-12.472657 2.09375-5.109374-.347656-10.953124-5.457031-13.046874zm0 0"/>
    <path d="m234.292969 99.492188c-5.109375-2.09375-10.949219.347656-13.042969 5.460937-4.296875 10.476563-2.070312 18.953125-.441406 25.144531 1.425781 5.417969 2.039062 8.199219.441406 12.097656-2.097656 5.109376.347656 10.949219 5.457031 13.042969 1.242188.511719 2.523438.75 3.789063.75 3.9375 0 7.671875-2.339843 9.257812-6.207031 4.207032-10.265625 2.003906-18.648438.394532-24.769531-1.453126-5.53125-2.078126-8.375-.394532-12.472657 2.09375-5.109374-.351562-10.953124-5.460937-13.046874zm0 0"/>
    <path d="m242.46875 358.5h-103.9375c-5.523438 0-10 4.476562-10 10s4.476562 10 10 10h103.9375c5.523438 0 10-4.476562 10-10s-4.476562-10-10-10zm0 0"/>
    <path d="m242.46875 398.5h-103.9375c-5.523438 0-10 4.476562-10 10s4.476562 10 10 10h103.9375c5.523438 0 10-4.476562 10-10s-4.476562-10-10-10zm0 0"/>
    <path d="m270.496094 462c-5.523438 0-10 4.476562-10 10 0 5.519531 4.476562 10 10 10h.238281c5.523437 0 10-4.480469 10-10 0-5.523438-4.476563-10-10-10zm0 0"/>
    <path d="m299.460938 482h41.035156c5.523437 0 10-4.476562 10-10s-4.476563-10-10-10h-41.035156c-5.519532 0-10 4.476562-10 10s4.480468 10 10 10zm0 0"/>
</svg>